{
  "accessors": [
    {
      "bufferView": 2,
      "componentType": 5126,
      "count": 836,
      "max": [
        1.3723382949829102,
        0.8231870532035828,
        0.01902150921523571
      ],
      "min": [
        -2.065113067626953,
        -0.019999921321868896,
        -0.019021501764655113
      ],
      "type": "VEC3"
    },
    {
      "bufferView": 2,
      "byteOffset": 10032,
      "componentType": 5126,
      "count": 836,
      "max": [
        0.9994466304779053,
        1.0,
        0.9537535905838013
      ],
      "min": [
        -0.9994199275970459,
        -1.0,
        -0.9537623524665833
      ],
      "type": "VEC3"
    },
    {
      "bufferView": 1,
      "componentType": 5126,
      "count": 836,
      "max": [
        0.9277108311653137,
        1.0
      ],
      "min": [
        0.03614457696676254,
        0.0
      ],
      "type": "VEC2"
    },
    {
      "bufferView": 0,
      "componentType": 5125,
      "count": 4500,
      "type": "SCALAR"
    },
    {
      "bufferView": 2,
      "byteOffset": 20064,
      "componentType": 5126,
      "count": 520,
      "max": [
        -2.0250096321105957,
        1.038919448852539,
        0.0651111975312233
      ],
      "min": [
        -2.0781428813934326,
        0.8189500570297241,
        -0.06499483436346054
      ],
      "type": "VEC3"
    },
    {
      "bufferView": 2,
      "byteOffset": 26304,
      "componentType": 5126,
      "count": 520,
      "max": [
        0.999960720539093,
        0.9954622983932495,
        0.9999989867210388
      ],
      "min": [
        -0.9950475692749023,
        -0.9998146295547485,
        -0.9999989867210388
      ],
      "type": "VEC3"
    },
    {
      "bufferView": 1,
      "byteOffset": 6688,
      "componentType": 5126,
      "count": 520,
      "max": [
        0.7500000596046448,
        0.7000001072883606
      ],
      "min": [
        0.2499999701976776,
        0.3749999701976776
      ],
      "type": "VEC2"
    },
    {
      "bufferView": 0,
      "byteOffset": 18000,
      "componentType": 5125,
      "count": 780,
      "type": "SCALAR"
    },
    {
      "bufferView": 2,
      "byteOffset": 32544,
      "componentType": 5126,
      "count": 310,
      "max": [
        -1.9957371950149536,
        1.0178699493408203,
        0.04603418707847595
      ],
      "min": [
        -2.0418412685394287,
        0.8715366125106812,
        -0.04587226361036301
      ],
      "type": "VEC3"
    },
    {
      "bufferView": 2,
      "byteOffset": 36264,
      "componentType": 5126,
      "count": 310,
      "max": [
        0.9732035994529724,
        0.9928369522094727,
        0.9994662404060364
      ],
      "min": [
        -0.973987877368927,
        -0.9997909665107727,
        -0.9995593428611755
      ],
      "type": "VEC3"
    },
    {
      "bufferView": 1,
      "byteOffset": 10848,
      "componentType": 5126,
      "count": 310,
      "max": [
        0.375,
        0.7000000476837158
      ],
      "min": [
        0.125,
        0.550000011920929
      ],
      "type": "VEC2"
    },
    {
      "bufferView": 0,
      "byteOffset": 21120,
      "componentType": 5125,
      "count": 486,
      "type": "SCALAR"
    },
    {
      "bufferView": 2,
      "byteOffset": 39984,
      "componentType": 5126,
      "count": 24,
      "max": [
        1.1312063932418823,
        -0.01677362248301506,
        0.018258221447467804
      ],
      "min": [
        0.6734062433242798,
        -0.04490793123841286,
        -0.017346054315567017
      ],
      "type": "VEC3"
    },
    {
      "bufferView": 2,
      "byteOffset": 40272,
      "componentType": 5126,
      "count": 24,
      "max": [
        1.0,
        0.9999989867210388,
        0.999998927116394
      ],
      "min": [
        -1.0,
        -0.9999989867210388,
        -0.999998927116394
      ],
      "type": "VEC3"
    },
    {
      "bufferView": 1,
      "byteOffset": 13328,
      "componentType": 5126,
      "count": 24,
      "max": [
        0.875,
        1.0
      ],
      "min": [
        0.125,
        0.0
      ],
      "type": "VEC2"
    },
    {
      "bufferView": 0,
      "byteOffset": 23064,
      "componentType": 5125,
      "count": 36,
      "type": "SCALAR"
    },
    {
      "bufferView": 2,
      "byteOffset": 40560,
      "componentType": 5126,
      "count": 4,
      "max": [
        1.0,
        1.0,
        0.0
      ],
      "min": [
        -1.0,
        -1.0,
        0.0
      ],
      "type": "VEC3"
    },
    {
      "bufferView": 2,
      "byteOffset": 40608,
      "componentType": 5126,
      "count": 4,
      "max": [
        0.0,
        0.0,
        1.0
      ],
      "min": [
        0.0,
        0.0,
        1.0
      ],
      "type": "VEC3"
    },
    {
      "bufferView": 1,
      "byteOffset": 13520,
      "componentType": 5126,
      "count": 4,
      "max": [
        1.0,
        1.0
      ],
      "min": [
        0.0,
        0.0
      ],
      "type": "VEC2"
    },
    {
      "bufferView": 0,
      "byteOffset": 23208,
      "componentType": 5125,
      "count": 6,
      "type": "SCALAR"
    }
  ],
  "asset": {
    "extras": {
      "author": "碧 (https://sketchfab.com/LK_7)",
      "license": "CC-BY-4.0 (http://creativecommons.org/licenses/by/4.0/)",
      "source": "https://sketchfab.com/3d-models/simple-street-light-127d854caca141bca50eb14f035d617b",
      "title": "Simple Street Light"
    },
    "generator": "Sketchfab-12.68.0",
    "version": "2.0"
  },
  "bufferViews": [
    {
      "buffer": 0,
      "byteLength": 23232,
      "name": "floatBufferViews",
      "target": 34963
    },
    {
      "buffer": 0,
      "byteLength": 13552,
      "byteOffset": 23232,
      "byteStride": 8,
      "name": "floatBufferViews",
      "target": 34962
    },
    {
      "buffer": 0,
      "byteLength": 40656,
      "byteOffset": 36784,
      "byteStride": 12,
      "name": "floatBufferViews",
      "target": 34962
    }
  ],
  "buffers": [
    {
      "byteLength": 77440,
      "uri": "scene.bin"
    }
  ],
  "extensionsUsed": [
    "KHR_materials_clearcoat"
  ],
  "materials": [
    {
      "doubleSided": true,
      "extensions": {
        "KHR_materials_clearcoat": {
          "clearcoatFactor": 1.0,
          "clearcoatRoughnessFactor": 0.04
        }
      },
      "name": "Material.003",
      "pbrMetallicRoughness": {
        "baseColorFactor": [
          0.5851037954979387,
          0.5851037954979387,
          0.5851037954979387,
          1.0
        ],
        "metallicFactor": 0.6280098870228265,
        "roughnessFactor": 0.8040408206
      }
    },
    {
      "doubleSided": true,
      "extensions": {
        "KHR_materials_clearcoat": {
          "clearcoatFactor": 1.0,
          "clearcoatRoughnessFactor": 0.04
        }
      },
      "name": "Material.001",
      "pbrMetallicRoughness": {
        "baseColorFactor": [
          0.7632,
          0.7632,
          0.7632,
          1.0
        ],
        "metallicFactor": 0.8165078621897385,
        "roughnessFactor": 0.8040408206
      }
    },
    {
      "doubleSided": true,
      "emissiveFactor": [
        1.0,
        1.0,
        1.0
      ],
      "extensions": {
        "KHR_materials_clearcoat": {
          "clearcoatFactor": 1.0,
          "clearcoatRoughnessFactor": 0.04
        }
      },
      "name": "Light",
      "pbrMetallicRoughness": {
        "baseColorFactor": [
          0.614836,
          0.618996,
          0.506669,
          1.0
        ],
        "roughnessFactor": 0.7489860633000001
      }
    },
    {
      "doubleSided": true,
      "extensions": {
        "KHR_materials_clearcoat": {
          "clearcoatFactor": 1.0,
          "clearcoatRoughnessFactor": 0.04
        }
      },
      "name": "Material.004",
      "pbrMetallicRoughness": {
        "baseColorFactor": [
          0.24459132422867846,
          0.24459132422867846,
          0.24459132422867846,
          1.0
        ],
        "metallicFactor": 0.5,
        "roughnessFactor": 0.8040408206
      }
    },
    {
      "doubleSided": true,
      "name": "Material.002",
      "pbrMetallicRoughness": {
        "baseColorFactor": [
          0.0,
          0.0,
          0.0,
          1.0
        ],
        "metallicFactor": 0.0
      }
    }
  ],
  "meshes": [
    {
      "name": "StreetLight_Material.003_0",
      "primitives": [
        {
          "attributes": {
            "NORMAL": 1,
            "POSITION": 0,
            "TEXCOORD_0": 2
          },
          "indices": 3,
          "material": 0,
          "mode": 4
        }
      ]
    },
    {
      "name": "StreetLight_Material.001_0",
      "primitives": [
        {
          "attributes": {
            "NORMAL": 5,
            "POSITION": 4,
            "TEXCOORD_0": 6
          },
          "indices": 7,
          "material": 1,
          "mode": 4
        }
      ]
    },
    {
      "name": "StreetLight_Light_0",
      "primitives": [
        {
          "attributes": {
            "NORMAL": 9,
            "POSITION": 8,
            "TEXCOORD_0": 10
          },
          "indices": 11,
          "material": 2,
          "mode": 4
        }
      ]
    },
    {
      "name": "StreetLight_Material.004_0",
      "primitives": [
        {
          "attributes": {
            "NORMAL": 13,
            "POSITION": 12,
            "TEXCOORD_0": 14
          },
          "indices": 15,
          "material": 3,
          "mode": 4
        }
      ]
    },
    {
      "name": "Plane_Material.002_0",
      "primitives": [
        {
          "attributes": {
            "NORMAL": 17,
            "POSITION": 16,
            "TEXCOORD_0": 18
          },
          "indices": 19,
          "material": 4,
          "mode": 4
        }
      ]
    }
  ],
  "nodes": [
    {
      "children": [
        1
      ],
      "matrix": [
        0.01225572545081377,
        0.0,
        0.0,
        0.0,
        0.0,
        2.721317715795595e-18,
        -0.01225572545081377,
        0.0,
        0.0,
        0.01225572545081377,
        2.721317715795595e-18,
        0.0,
        0.0,
        0.0,
        0.0,
        1.0
      ],
      "name": "Sketchfab_model"
    },
    {
      "children": [
        2
      ],
      "matrix": [
        1.0,
        0.0,
        0.0,
        0.0,
        0.0,
        0.0,
        1.0,
        0.0,
        0.0,
        -1.0,
        0.0,
        0.0,
        0.0,
        0.0,
        0.0,
        1.0
      ],
      "name": "4f988842ccab4896a1e96c280390d68f.fbx"
    },
    {
      "children": [
        3,
        8
      ],
      "name": "RootNode"
    },
    {
      "children": [
        4,
        5,
        6,
        7
      ],
      "matrix": [
        2.58030044908469e-05,
        -132.52209472655946,
        1.1833655531481684e-05,
        0.0,
        0.1978465692782711,
        1.1872163126892229e-05,
        132.52193178186675,
        0.0,
        -132.52193178186477,
        -2.5785305924800603e-05,
        0.19784656928058839,
        0.0,
        0.017845630645751953,
        176.35353088378906,
        -0.6736690402030945,
        1.0
      ],
      "name": "StreetLight"
    },
    {
      "mesh": 0,
      "name": "StreetLight_Material.003_0"
    },
    {
      "mesh": 1,
      "name": "StreetLight_Material.001_0"
    },
    {
      "mesh": 2,
      "name": "StreetLight_Light_0"
    },
    {
      "mesh": 3,
      "name": "StreetLight_Material.004_0"
    },
    {
      "children": [
        9
      ],
      "matrix": [
        1000.0,
        0.0,
        0.0,
        0.0,
        0.0,
        -0.0001629206793918314,
        -999.9999999999868,
        0.0,
        0.0,
        999.9999999999868,
        -0.0001629206793918314,
        0.0,
        0.0,
        0.0,
        0.0,
        1.0
      ],
      "name": "Plane"
    },
    {
      "mesh": 4,
      "name": "Plane_Material.002_0"
    }
  ],
  "scene": 0,
  "scenes": [
    {
      "name": "Sketchfab_Scene",
      "nodes": [
        0
      ]
    }
  ]
}
